# xmcd
#
# Track frame offsets:
#	150
#	15704
#	34134
#	50095
#	65227
#	84347
#	105000
#	121386
#	147921
#	166108
#	184918
#	204942
#	226810
#	249163
#	265089
#	296689
#	315409
#	334209
#
# Disc length: 4636 seconds
#
# Revision: 0
# Processed by: cddbd v1.5.2PL0 Copyright (c) Steve Scherf et al.
# Submitted via: dBpowerAMP V4.0
#
DISCID=f3121a12
DTITLE=Barry White - The Ultimate Collection
DYEAR=1900
DGENRE=soundtrack
TTITLE0=Youre the first, the last, my everything
TTITLE1=Can´t get enough of your love babe
TTITLE2=Let the music play
TTITLE3=Don´t make me wait too lang
TTITLE4=I´ll do for you anything you want me
TTITLE5=Sho´you right
TTITLE6=What am I gonna do with you
TTITLE7=Come on
TTITLE8=I'm gonna love you just a little more babe
TTITLE9=Never, never gonna give you up
TTITLE10=Baby we better try and get it together
TTITLE11=Just the way you are
TTITLE12=Dark and lovely (you over there) "radio edit"
TTITLE13=You see the trouble with me
TTITLE14=It's ecstasy when you lay down next to me
TTITLE15=The right night
TTITLE16=Love's theme
TTITLE17=Let the music play (Funkstar's Club deluxe edit)
EXTD=
EXTT0=
EXTT1=
EXTT2=
EXTT3=
EXTT4=
EXTT5=
EXTT6=
EXTT7=
EXTT8=
EXTT9=
EXTT10=
EXTT11=
EXTT12=
EXTT13=
EXTT14=
EXTT15=
EXTT16=
EXTT17=
PLAYORDER=
